<svg version="1.1" id="layer" xmlns="http://www.w3.org/2000/svg" x="0" y="0" viewBox="0 0 652 652" xml:space="preserve"><style>.st0{fill:#ffb600}.st1{fill:none;stroke:#ffb600;stroke-width:2.1696;stroke-miterlimit:10}</style><path class="st0" d="M78.5 273.4h48v48h-48z"/><path class="st1" d="M78.5 273.4h48v48h-48z"/><path class="st0" d="M69.1 330.7h-48v48h48v-48zm-15.9 32h-16v-16h16v16z"/><path class="st1" d="M69.1 330.7h-48v48h48v-48zm-15.9 32h-16v-16h16v16z"/><path transform="rotate(-45.001 68.934 263.867)" class="st0" d="M61 243.4h15.8v40.9H61z"/><path transform="rotate(-45.001 68.934 263.867)" class="st1" d="M61 243.4h15.8v40.9H61z"/><path transform="rotate(-45.001 73.803 326.038)" class="st0" d="M60.2 318.2h27.3v15.7H60.2z"/><path transform="rotate(-45.001 73.803 326.038)" class="st1" d="M60.2 318.2h27.3v15.7H60.2z"/><path class="st0" d="M69.1 216.1h-48v48h48v-48zm-15.9 32h-16v-16h16v16z"/><path class="st1" d="M69.1 216.1h-48v48h48v-48zm-15.9 32h-16v-16h16v16z"/><path d="M180.9 373.4c2.6 5.4 8.3 9 14.6 9 11.6 0 18.6-9.4 18.6-21.7 0-12.5-6.9-21.8-18.6-21.8-6.4 0-12 3.8-14.6 9v25.5zm0 54.6h-21.5V321.9h21.5v6.4c3.5-4.2 11.1-8.1 19.4-8.1 22.5 0 35.4 18.7 35.4 40.6 0 21.8-12.8 40.4-35.4 40.4-8.3 0-16-4-19.4-8.1V428zm132.8-28.6h-21.5v-7.1c-4.3 4.9-11.8 8.8-20.8 8.8-17.3 0-27.2-11.4-27.2-28.6v-50.6h21.5v46.3c0 8.2 4 13.7 12.5 13.7 6.6 0 12.3-4 13.9-10.7V322h21.7v77.4zm35.8-26c2.6 5.4 8.3 9 14.6 9 11.6 0 18.6-9.4 18.6-21.7 0-12.5-6.9-21.8-18.6-21.8-6.4 0-12 3.8-14.6 9v25.5zm0 54.6H328V321.9h21.5v6.4c3.5-4.2 11.1-8.1 19.4-8.1 22.5 0 35.4 18.7 35.4 40.6 0 21.8-12.8 40.4-35.4 40.4-8.3 0-16-4-19.4-8.1V428zm85.6-54.6c2.6 5.4 8.3 9 14.6 9 11.6 0 18.6-9.4 18.6-21.7 0-12.5-6.9-21.8-18.6-21.8-6.4 0-12 3.8-14.6 9v25.5zm0 54.6h-21.5V321.9h21.5v6.4c3.5-4.2 11.1-8.1 19.4-8.1 22.5 0 35.4 18.7 35.4 40.6 0 21.8-12.8 40.4-35.4 40.4-8.3 0-16-4-19.4-8.1V428zm81.4-75.8h30c-.2-8.2-5-14.6-13.9-14.6-8.3 0-14.2 5.1-16.1 14.6m50.6 21.9c-2.8 16.5-14.9 27.1-34.3 27.1-22.5 0-37.6-16.5-37.6-40.4 0-23.4 15.6-40.6 37.3-40.6 22.7 0 35.2 15.8 35.2 38.5v6.6H516c.7 11.6 7.3 18.6 16.8 18.6 7.3 0 12.7-3.1 14.4-9.7h19.9zm14.6-34.9h-11.8v-17.3h11.8v-21H603v21h17v17.3h-17v34c0 6.1 3.3 8.8 8.8 8.8 3.3 0 6.9-1 9.4-2.6v19.1c-2.9 1.6-8.2 2.4-13.9 2.4-15.8 0-25.7-7.8-25.7-25v-36.7z" fill="#0e1821"/></svg>